<!DOCTYPE svg PUBLIC "-//W3C//DTD SVG 1.1//EN" "http://www.w3.org/Graphics/SVG/1.1/DTD/svg11.dtd">
<!-- Uploaded to: SVG Repo, www.svgrepo.com, Transformed by: SVG Repo Mixer Tools -->
<svg fill="#ff3838" height="65px" width="65px" version="1.1" id="Layer_1" xmlns="http://www.w3.org/2000/svg" xmlns:xlink="http://www.w3.org/1999/xlink" viewBox="0 0 392.533 392.533" xml:space="preserve" stroke="#ff3838">
<g id="SVGRepo_bgCarrier" stroke-width="0"/>
<g id="SVGRepo_tracerCarrier" stroke-linecap="round" stroke-linejoin="round"/>
<g id="SVGRepo_iconCarrier"> <g> <g> <path d="M196.267,85.851c-48.032,0-87.273,39.111-87.273,87.273s39.24,87.273,87.273,87.273s87.273-39.111,87.273-87.273 C283.539,125.091,244.428,85.851,196.267,85.851z M196.267,238.481c-36.073,0-65.358-29.349-65.358-65.358 c0-36.008,29.285-65.358,65.358-65.358s65.358,29.349,65.358,65.358C261.624,209.196,232.275,238.481,196.267,238.481z"/> </g> </g> <g> <g> <path d="M196.267,127.935c-0.453,0-6.206,0-9.956,4.655c-2.133,2.651-2.521,6.335-1.487,9.632 c0.388,1.228,0.517,2.133,0.517,3.103c0,5.624-4.59,10.214-10.214,10.214c-2.004,0-3.943-0.646-5.624-1.681 c-2.844-1.939-6.465-2.392-9.632-1.228c-10.149,3.879-8.857,15.968-8.857,20.622c0,24.954,20.299,45.188,45.253,45.188 s45.253-20.299,45.253-45.253S221.22,127.935,196.267,127.935z M196.331,196.719c-11.572,0-21.204-8.404-23.079-19.394 c15.838,0.905,29.996-10.214,33.228-25.277c7.887,3.814,13.317,11.83,13.317,21.204 C219.798,186.182,209.261,196.719,196.331,196.719z"/> </g> </g> <g> <g> <path d="M304.162,308.558c39.758-31.741,65.358-80.614,65.358-135.305C369.519,77.77,291.814,0,196.267,0 S23.014,77.705,23.014,173.253c0,54.756,25.6,103.628,65.358,135.37l-31.289,68.461c-1.552,3.426-2.715,14.158,9.956,15.451 H325.56c11.895-1.552,11.507-12.024,9.956-15.451L304.162,308.558z M44.865,173.253c0-83.459,67.943-151.402,151.402-151.402 s151.402,67.943,151.402,151.402S279.725,324.59,196.267,324.59S44.865,256.711,44.865,173.253z M83.976,370.747l22.562-49.39 c27.022,16.485,57.794,25.018,89.729,25.018s62.642-8.663,89.729-25.018l22.562,49.39H83.976z"/> </g> </g> <g> <g> <path d="M196.267,37.883c-6.077,0-10.925,4.849-10.925,10.925v10.731c0,6.077,4.913,10.925,10.925,10.925 c6.012,0,10.925-4.849,10.925-10.925V48.808C207.192,42.796,202.343,37.883,196.267,37.883z"/> </g> </g> </g>
</svg>